<svg xmlns="http://www.w3.org/2000/svg" x="0" y="0" version="1.1" viewBox="0 0 346.163 161.435" xml:space="preserve"><style>.st0{fill:#0af}.st1{fill:none;stroke:#0af;stroke-width:14.7765;stroke-linecap:round;stroke-miterlimit:10}</style><path d="M51.394 113.693V89.7c-5.184 3.546-11.45 5.728-18.271 5.728C14.724 95.428 0 80.16 0 61.345c0-18.676 14.724-34.077 33.123-34.077 6.954 0 13.226 2.314 18.543 5.722.544-3.136 3.546-5.722 7.226-5.722 4.09 0 7.359 3.269 7.359 7.359v79.066c0 3.818-3.269 7.226-7.359 7.226-4.229 0-7.498-3.408-7.498-7.226zM33.123 41.992c-4.768 0-9.269 2.176-12.81 5.861-3.275 3.269-5.589 8.314-5.589 13.492 0 5.589 2.314 10.501 5.589 13.77 3.541 3.818 8.042 5.728 12.81 5.728 4.912 0 9.546-1.909 12.682-5.728 3.541-3.269 5.589-8.181 5.589-13.77 0-5.178-2.048-10.223-5.589-13.492-3.136-3.686-7.77-5.861-12.682-5.861zM104.103 95.428c-15.54 0-28.355-12.815-28.355-28.355V34.494c0-3.818 3.269-7.226 7.226-7.226 4.085 0 7.221 3.408 7.221 7.226v32.579c0 7.77 6.138 13.903 13.908 13.903 7.903 0 14.175-6.133 14.314-13.903V34.494c0-3.818 2.997-7.226 7.087-7.226 3.818 0 7.359 3.408 7.359 7.226v32.579c0 15.54-13.087 28.355-28.76 28.355zM157.083 10.223c0 4.09-3.136 7.498-7.365 7.498-4.09 0-7.359-3.408-7.359-7.498V7.365c0-4.09 3.269-7.365 7.359-7.365 4.229 0 7.365 3.275 7.365 7.365v2.858zm0 24.676v53.17c0 4.085-3.136 7.359-7.365 7.359-4.09 0-7.359-3.275-7.359-7.359v-53.17c0-4.362 3.269-7.498 7.359-7.498 4.23 0 7.365 3.135 7.365 7.498zM224.85 38.173l-22.356 52.892c-.133.411-.405.816-.544.955 0 .133-.139.133-.139.133-.272.278-.544.683-.816.955 0 .139-.133.139-.133.139-.278.411-.549.544-.821.816 0 0-.133 0-.133.139-.277.272-.549.544-.955.683h-.277v.133c-.405 0-.816.139-1.088.272h-.272c-.544.139-.955.139-1.365.139-.272 0-.683 0-1.227-.139h-.272c-.411-.133-.683-.272-1.088-.272v-.133h-.277c-.405-.139-.677-.411-1.227-.683 0-.139-.133-.139-.133-.139-.272-.272-.544-.405-.821-.816-.133 0-.133 0-.272-.139-.133-.272-.405-.677-.683-.955-.133 0-.133 0-.133-.133-.272-.139-.411-.544-.544-.955L167.19 38.173c-1.637-3.68.133-7.637 3.952-9.269 3.269-1.637 7.498.272 9.135 3.952l15.673 37.08 15.812-37.08c1.504-3.68 5.594-5.589 9.135-3.952 3.819 1.632 5.59 5.59 3.953 9.269zM229.297 61.345c.133-18.537 14.586-34.077 33.262-34.077 17.721 0 31.763 13.22 32.851 31.624v.683c0 .272 0 .955-.133 1.227-.411 3.275-3.275 5.456-7.087 5.456h-43.352c.683 3.136 2.181 6.677 4.634 8.997 2.864 3.269 8.314 5.722 13.087 6.133 4.906.411 10.767-.816 14.175-3.408 2.864-2.997 8.453-2.592 10.229-.411 1.77 1.909 3.136 6 0 8.863-6.682 6.133-14.724 8.997-24.404 8.997-18.676-.14-33.129-15.541-33.262-34.084zm14.858-6.677h38.578c-1.36-5.456-8.314-13.498-20.174-14.452-11.589.544-17.317 8.863-18.404 14.452zM346.163 34.494c0 3.813-3.136 7.221-7.226 7.221-3.136 0-5.861.821-8.181 2.592-2.592 1.637-4.634 3.952-6.272 6.544-3.269 4.362-4.906 9.541-5.589 11.45v25.902c0 3.952-3.408 7.226-7.498 7.226-3.952 0-7.226-3.275-7.226-7.226V34.494c0-3.957 3.275-7.093 7.226-7.093 4.09 0 7.498 3.136 7.498 7.093v.949c.816-.949 1.909-2.042 2.864-2.725 4.496-2.997 10.362-5.45 17.177-5.317 4.091 0 7.227 3.135 7.227 7.093z" class="st0"/><path d="M58.813 39.133v114.914M58.813 154.047c0-18.688 15.122-33.81 33.81-33.81M25.003 120.237c18.688 0 33.81 15.122 33.81 33.81" class="st1"/></svg>