<svg class="typst-doc" fill="white" viewBox="-5.512 -3.43 31.996 31.208" xmlns="http://www.w3.org/2000/svg"><defs class="glyph"><path id="a" class="outline_glyph" d="M564 672c31 0 46 16 46 47 0 53-56 86-113 86-76 0-127-58-153-175-2-10-6-33-11-70H88c-31 0-32-5-32-38l241-254c-5-45-8-81-10-106L64-45c-7-6-10-12-10-19 0-10 10-15 31-15h184c-8-94-24-197-101-197-21 0-39 5-54 15 21 6 32 20 32 42 0 27-18 46-45 46-30 0-45-16-45-47 0-53 55-86 112-86 81 0 137 60 167 179 3 11 6 27 9 48h249l68 204h-34c-6-19-23-39-50-60-54-41-128-66-223-77 9 65 17 134 25 206l40 37c7 9 10 15 10 19s-3 10-8 17l-31 31 15 206c114-15 185-54 214-116h33l-59 172H410c3 61 10 110 21 145 13 42 21 70 67 70 21 0 39-5 53-15-21-6-31-20-31-42 0-26 18-46 44-46ZM242 512c33 0 61-1 84-2l-17-131-133 133ZM150-16l132 122-9-122Z"/></defs><g class="typst-page" data-tid="plmaT+yfXOkIIvnSl9Hd8r4" data-page-width="20" data-page-height="20"><g data-tid="glmaT+yfXOkIIvnSl9Hd8r4" class="typst-group"><g data-tid="pGc3qbSiVBSUa1xwgZYZeZg"><g data-tid="gGc3qbSiVBSUa1xwgZYZeZg" class="typst-group"><g data-tid="pmeHkFwFptDIkYebdb5VU9E"><use href="#a" data-tid="gmeHkFwFptDIkYebdb5VU9E" class="typst-text" transform="matrix(.028 0 0 -.028 0 19.11)"/></g></g></g></g></g></svg>
