<svg xmlns="http://www.w3.org/2000/svg" version="1.1" viewBox="0 0 128 128"><style>.st1{fill:none;stroke:#fff;stroke-width:4;stroke-miterlimit:10}</style><path fill="#fff" d="M92.04 28c4.389 0 7.96 3.571 7.96 7.96v56.08c0 4.389-3.571 7.96-7.96 7.96H35.96c-4.389 0-7.96-3.571-7.96-7.96V35.96c0-4.389 3.571-7.96 7.96-7.96h56.08m0-4H35.96C29.355 24 24 29.355 24 35.96v56.08C24 98.645 29.355 104 35.96 104h56.08c6.605 0 11.96-5.355 11.96-11.96V35.96C104 29.355 98.645 24 92.04 24z"/><path d="M51.222 25.667v76.666M76.778 25.667v76.666M24 76.778h76.667M24 51.222h76.667" class="st1"/></svg>