<svg viewBox="0 0 128 128" xmlns="http://www.w3.org/2000/svg"><path fill-rule="evenodd" clip-rule="evenodd" d="M80 48H48V80H80V48ZM40 40V88H88V40H40Z" fill="#fff"/><path d="M97.8992 25.2402C94.9691 23.274 91.5241 22.2246 88 22.2246V12C93.5379 12 98.9514 13.6491 103.556 16.7387C108.161 19.8283 111.749 24.2197 113.869 29.3576C115.988 34.4954 116.542 40.1489 115.462 45.6032C114.382 51.0576 111.715 56.0677 107.799 60L100.599 52.7701C103.091 50.2677 104.788 47.0794 105.476 43.6085C106.163 40.1376 105.81 36.5399 104.462 33.2704C103.113 30.0008 100.829 27.2063 97.8992 25.2402Z" fill="#fff"/><path d="M64 16L88 2.1436L88 29.8564L64 16Z" fill="#fff"/></svg>