<svg xmlns="http://www.w3.org/2000/svg" version="1.1" viewBox="0 0 128 128"><style>.st0{fill:#fff}</style><path d="M38.23 48.93l2.345 9.013c.513 1.978.989 3.81 1.319 5.642h.11c.403-1.796.989-3.7 1.575-5.605l2.894-9.049h2.711l2.748 8.866c.66 2.125 1.172 3.993 1.575 5.789h.11c.293-1.796.769-3.664 1.355-5.752l2.528-8.902h3.188l-5.715 17.732h-2.931l-2.711-8.463c-.623-1.979-1.136-3.737-1.576-5.825h-.073c-.439 2.125-.989 3.957-1.612 5.862l-2.857 8.426h-2.931L34.934 48.93h3.296zM65.633 48.93l2.344 9.013c.514 1.978.99 3.81 1.319 5.642h.11c.402-1.796.988-3.7 1.575-5.605l2.894-9.049h2.712l2.747 8.866c.66 2.125 1.173 3.993 1.576 5.789h.109c.293-1.796.77-3.664 1.355-5.752l2.528-8.902h3.188l-5.716 17.732h-2.931l-2.711-8.463c-.623-1.979-1.136-3.737-1.575-5.825h-.074c-.439 2.125-.988 3.957-1.611 5.862l-2.857 8.426h-2.932L62.335 48.93h3.298zM93.034 48.93l2.345 9.013c.514 1.978.989 3.81 1.319 5.642h.11c.402-1.796.988-3.7 1.574-5.605l2.895-9.049h2.711l2.748 8.866c.66 2.125 1.172 3.993 1.575 5.789h.11c.293-1.796.77-3.664 1.355-5.752l2.527-8.902h3.188l-5.715 17.732h-2.932l-2.711-8.463c-.623-1.979-1.135-3.737-1.575-5.825h-.073c-.439 2.125-.988 3.957-1.611 5.862l-2.857 8.426h-2.932L89.737 48.93h3.297zM116.518 64.757c0-1.355.916-2.308 2.198-2.308s2.161.952 2.161 2.308c0 1.319-.843 2.309-2.198 2.309-1.283-.001-2.161-.99-2.161-2.309z" class="st0"/><g><path d="M93.199 86H128v-4H89.48zM31.987 30C24.275 30 18 35.267 18 41.74v32.52C18 80.733 24.275 86 31.987 86h30.819l3.72-4H31.987C26.48 82 22 78.527 22 74.26V41.74c0-4.268 4.48-7.74 9.987-7.74H128v-4H31.987z" class="st0"/></g><g><path d="M75 114V87.574l-10.375 11.16-4.393-4.091 17.772-19.112 17.768 19.112-4.393 4.091L81 87.566V114z" class="st0"/></g></svg>