<svg fill="none" viewBox="0 0 128 128" xmlns="http://www.w3.org/2000/svg"><path d="m51.545 104c7.4111 0 13.419-6.0079 13.419-13.419s-6.0079-13.419-13.419-13.419-13.419 6.0079-13.419 13.419 6.0079 13.419 13.419 13.419z" fill="#fff"/><path d="m90.578 64.964c7.4111 0 13.419-6.0079 13.419-13.419s-6.0079-13.419-13.419-13.419-13.419 6.0079-13.419 13.419 6.0079 13.419 13.419 13.419z" fill="#fff"/><path d="m37.258 50.677c7.4111 0 13.419-6.0079 13.419-13.419s-6.0079-13.419-13.419-13.419-13.419 6.0079-13.419 13.419 6.0079 13.419 13.419 13.419z" stroke="#fff" stroke-miterlimit="10" stroke-width="4"/><path d="m52 91 39-39" stroke="#fff" stroke-width="12"/></svg>