<svg xmlns="http://www.w3.org/2000/svg" viewBox="0 0 128 128"><path fill="#fff" d="M114.246 40.4H13.754C10.576 40.4 8 42.976 8 46.154v41.692c0 3.178 2.576 5.754 5.754 5.754h100.492c3.178 0 5.754-2.576 5.754-5.754V46.154c0-3.178-2.576-5.754-5.754-5.754zM93.4 48.006c0-1.108.898-2.006 2.006-2.006h4.387c1.108 0 2.006.898 2.006 2.006v4.387c0 1.108-.898 2.006-2.006 2.006h-4.387c-1.108 0-2.006-.898-2.006-2.006v-4.387zm2.8 11.2v4.387c0 1.108-.898 2.007-2.007 2.007h-4.387c-1.108 0-2.007-.898-2.007-2.007v-4.387c0-1.108.898-2.006 2.007-2.006h4.387c1.109 0 2.007.898 2.007 2.006zm-14-11.2c0-1.108.898-2.006 2.006-2.006h4.387c1.108 0 2.006.898 2.006 2.006v4.387c0 1.108-.898 2.006-2.006 2.006h-4.387c-1.108 0-2.006-.898-2.006-2.006v-4.387zm-44.8 22.4c0-1.108.898-2.007 2.006-2.007h4.387c1.108 0 2.006.898 2.006 2.007v4.387c0 1.108-.898 2.007-2.006 2.007h-4.387c-1.108 0-2.006-.898-2.006-2.007v-4.387zM33.807 65.6c-1.108 0-2.007-.898-2.007-2.007v-4.387c0-1.108.898-2.006 2.007-2.006h4.387c1.108 0 2.007.898 2.007 2.006v4.387c0 1.108-.898 2.007-2.007 2.007h-4.387zm11.2 0c-1.109 0-2.007-.898-2.007-2.007v-4.387c0-1.108.898-2.006 2.007-2.006h4.387c1.108 0 2.007.898 2.007 2.006v4.387c0 1.108-.898 2.007-2.007 2.007h-4.387zm3.593 4.806c0-1.108.898-2.007 2.007-2.007h4.387c1.108 0 2.007.898 2.007 2.007v4.387c0 1.108-.898 2.007-2.007 2.007h-4.387c-1.108 0-2.007-.898-2.007-2.007v-4.387zm7.606-4.806c-1.108 0-2.006-.898-2.006-2.007v-4.387c0-1.108.898-2.006 2.006-2.006h4.387c1.108 0 2.006.898 2.006 2.006v4.387c0 1.108-.898 2.007-2.006 2.007h-4.387zm3.594 4.806c0-1.108.898-2.007 2.007-2.007h4.387c1.108 0 2.007.898 2.007 2.007v4.387c0 1.108-.898 2.007-2.007 2.007h-4.387c-1.108 0-2.007-.898-2.007-2.007v-4.387zm7.606-4.806c-1.108 0-2.006-.898-2.006-2.007v-4.387c0-1.108.898-2.006 2.006-2.006h4.387c1.108 0 2.006.898 2.006 2.006v4.387c0 1.108-.898 2.007-2.006 2.007h-4.387zM71 70.406c0-1.108.898-2.007 2.007-2.007h4.387c1.108 0 2.007.898 2.007 2.007v4.387c0 1.108-.898 2.007-2.007 2.007h-4.387c-1.109 0-2.007-.898-2.007-2.007v-4.387zm7.607-4.806c-1.108 0-2.007-.898-2.007-2.007v-4.387c0-1.108.898-2.006 2.007-2.006h4.387c1.108 0 2.007.898 2.007 2.006v4.387c0 1.108-.898 2.007-2.007 2.007h-4.387zM71 48.006c0-1.108.898-2.006 2.007-2.006h4.387c1.108 0 2.007.898 2.007 2.006v4.387c0 1.108-.898 2.006-2.007 2.006h-4.387C71.898 54.4 71 53.502 71 52.393v-4.387zm-11.2 0c0-1.108.898-2.006 2.007-2.006h4.387c1.108 0 2.007.898 2.007 2.006v4.387c0 1.108-.898 2.006-2.007 2.006h-4.387c-1.108 0-2.007-.898-2.007-2.006v-4.387zm-11.2 0c0-1.108.898-2.006 2.007-2.006h4.387c1.108 0 2.006.898 2.006 2.006v4.387c0 1.108-.898 2.006-2.007 2.006h-4.387c-1.108 0-2.007-.898-2.007-2.006v-4.387zm-11.2 0c0-1.108.898-2.006 2.006-2.006h4.387c1.108 0 2.006.898 2.006 2.006v4.387c0 1.108-.898 2.006-2.006 2.006h-4.387c-1.108 0-2.006-.898-2.006-2.006v-4.387zm-11.2 0c0-1.108.898-2.006 2.006-2.006h4.387c1.108 0 2.006.898 2.006 2.006v4.387c0 1.108-.898 2.006-2.006 2.006h-4.387c-1.108 0-2.006-.898-2.006-2.006v-4.387zm-11.2 0c0-1.108.898-2.006 2.007-2.006h4.387c1.108 0 2.007.898 2.007 2.006v4.387c0 1.108-.898 2.006-2.007 2.006h-4.387C15.898 54.4 15 53.502 15 52.393v-4.387zm0 11.2c0-1.108.898-2.006 2.007-2.006h9.987c1.108 0 2.007.898 2.007 2.006v4.387c0 1.108-.898 2.007-2.007 2.007h-9.987c-1.109 0-2.007-.898-2.007-2.007v-4.387zm8.4 26.787c0 1.108-.898 2.007-2.007 2.007h-4.387C15.898 88 15 87.102 15 85.993v-4.387c0-1.108.898-2.007 2.007-2.007h4.387c1.108 0 2.007.898 2.007 2.007v4.387zm0-11.2c0 1.108-.898 2.007-2.007 2.007h-4.387c-1.108 0-2.006-.898-2.006-2.007v-4.387c0-1.108.898-2.007 2.007-2.007h4.387c1.108 0 2.007.898 2.007 2.007v4.387zm11.2 11.2c0 1.108-.898 2.007-2.006 2.007h-4.387c-1.108 0-2.006-.898-2.006-2.007v-4.387c0-1.108.898-2.007 2.006-2.007h4.387c1.108 0 2.006.898 2.006 2.007v4.387zm0-11.2c0 1.108-.898 2.007-2.006 2.007h-4.387c-1.108 0-2.006-.898-2.006-2.007v-4.387c0-1.108.898-2.007 2.006-2.007h4.387c1.108 0 2.006.898 2.006 2.007v4.387zm56 11.2c0 1.108-.898 2.007-2.006 2.007H39.406c-1.108 0-2.006-.898-2.006-2.007v-4.387c0-1.108.898-2.007 2.006-2.007h49.187c1.108 0 2.006.898 2.006 2.007v4.387zm0-11.2c0 1.108-.898 2.007-2.006 2.007h-4.387c-1.108 0-2.006-.898-2.006-2.007v-4.387c0-1.108.898-2.007 2.006-2.007h4.387c1.108 0 2.006.898 2.006 2.007v4.387zm11.2 11.2c0 1.108-.898 2.007-2.006 2.007h-4.387c-1.108 0-2.006-.898-2.006-2.007v-4.387c0-1.108.898-2.007 2.006-2.007h4.387c1.108 0 2.006.898 2.006 2.007v4.387zm0-11.2c0 1.108-.898 2.007-2.006 2.007h-4.387c-1.108 0-2.006-.898-2.006-2.007v-4.387c0-1.108.898-2.007 2.006-2.007h4.387c1.108 0 2.006.898 2.006 2.007v4.387zm11.2 11.2c0 1.108-.898 2.007-2.007 2.007h-4.387c-1.108 0-2.007-.898-2.007-2.007v-4.387c0-1.108.898-2.007 2.007-2.007h4.387c1.108 0 2.007.898 2.007 2.007v4.387zm0-11.2c0 1.108-.898 2.007-2.007 2.007h-4.387c-1.108 0-2.007-.898-2.007-2.007v-4.387c0-1.108.898-2.007 2.007-2.007h4.387c1.108 0 2.007.898 2.007 2.007v4.387zm0-11.2c0 1.108-.898 2.007-2.007 2.007h-9.987c-1.108 0-2.006-.898-2.006-2.007v-4.387c0-1.108.898-2.006 2.007-2.006h9.987c1.108 0 2.007.898 2.007 2.006v4.387zm0-11.2c0 1.108-.898 2.006-2.007 2.006h-4.387c-1.108 0-2.007-.898-2.007-2.006v-4.387c0-1.108.898-2.006 2.007-2.006h4.387c1.108 0 2.007.898 2.007 2.006v4.387z"/></svg>