<svg xmlns="http://www.w3.org/2000/svg" version="1.1" viewBox="0 0 128 128"><style>.st0{fill:#fff}</style><circle cx="32" cy="88" r="21" class="st0"/><path d="M71.744 43.291V25.909H56.549v17.382h-8.256l15.529 14.818L80 43.291zM64 67c-5.692 0-10.847 2.273-14.629 5.951.886 1.022 1.686 2.12 2.384 3.287C54.85 73.017 59.19 71 64 71c9.374 0 17 7.626 17 17s-7.626 17-17 17c-4.81 0-9.15-2.017-12.245-5.238-.698 1.167-1.497 2.265-2.384 3.287C53.153 106.727 58.308 109 64 109c11.598 0 21-9.402 21-21s-9.402-21-21-21z" class="st0"/><path d="M97 67c-5.968 0-11.341 2.501-15.165 6.498.866 1.063 1.639 2.205 2.307 3.414C87.262 73.299 91.864 71 97 71c9.374 0 17 7.626 17 17s-7.626 17-17 17c-5.136 0-9.738-2.299-12.857-5.911-.668 1.208-1.441 2.35-2.307 3.414C85.659 106.499 91.032 109 97 109c11.598 0 21-9.402 21-21s-9.402-21-21-21z" class="st0"/></svg>